<svg 
xmlns="http://www.w3.org/2000/svg"
 width="222.8016732679777" height="304.9200042724609" viewBox="0 0 350 479" class="looka-1j8o68f"><defs id="SvgjsDefs2185"></defs><g id="SvgjsG2186" featurekey="rootContainer" transform="matrix(1,0,0,1,0,0)" fill="#f9f7e9"><path xmlns="http://www.w3.org/2000/svg" fill-rule="evenodd" d="M5,65 L175,0 L345, 65 L175, 10 z M5,399 L175,479 L345,394 L175, 469 z"></path></g><g id="SvgjsG2187" featurekey="symbolFeature-0" transform="matrix(5.088180769103593,0,0,5.088180769103593,93.615657969266,87.41520408680343)" fill="#f9f7e9"><title xmlns="http://www.w3.org/2000/svg">a</title><g xmlns="http://www.w3.org/2000/svg" data-name="09 Network"><path d="M25.874,16c3.122-3.006,4.588-5.934,3.543-7.746C28.5,6.66,25.858,6.265,22.165,7.129A1.9,1.9,0,0,0,20.6,6.217C19.5,2.592,17.838.508,16,.508c-2.088,0-3.894,2.628-4.944,6.939-4.162-1.2-7.427-1-8.473.807S3,12.99,6.119,15.994c-3.211,3.065-4.582,5.94-3.536,7.752.611,1.059,1.979,1.566,3.843,1.566a17.252,17.252,0,0,0,4.635-.769C12.1,28.755,13.907,31.492,16,31.492c1.852,0,3.465-2.007,4.575-5.634a1.9,1.9,0,0,0,1.622-.975,15.246,15.246,0,0,0,3.38.444c1.9,0,3.236-.535,3.84-1.581C30.463,21.934,29,19.006,25.874,16Zm2.677-7.246c.746,1.293-.493,3.808-3.4,6.577a34.033,34.033,0,0,0-3.392-2.653c-.08-.986-.2-1.942-.35-2.872a1.9,1.9,0,0,0,1.039-1.688c0-.01,0-.019,0-.029C25.607,7.357,27.88,7.592,28.551,8.753ZM20.418,22.061A1.9,1.9,0,0,0,19,22.843q-.915-.35-1.841-.766.888-.456,1.785-.974c.6-.347,1.176-.7,1.738-1.066C20.612,20.726,20.525,21.4,20.418,22.061Zm-1.973-1.824c-.831.479-1.643.907-2.439,1.3-.817-.4-1.636-.828-2.452-1.3-.833-.481-1.612-.972-2.351-1.466-.059-.888-.095-1.808-.095-2.77,0-.456.014-.9.029-1.348a1.883,1.883,0,0,0,1.331-2.232c.356-.221.714-.441,1.086-.656.817-.471,1.635-.9,2.452-1.3.8.392,1.608.82,2.439,1.3s1.609.97,2.347,1.463c.061.907.1,1.829.1,2.773s-.04,1.866-.1,2.774C20.053,19.267,19.276,19.757,18.445,20.237Zm-3.591,1.842A32.671,32.671,0,0,1,11.788,23.3a32.6,32.6,0,0,1-.48-3.264c.564.363,1.142.722,1.746,1.071S14.254,21.77,14.854,22.079ZM11.41,11.107c.106-.837.238-1.639.394-2.4a32.631,32.631,0,0,1,3.05,1.211c-.6.309-1.2.631-1.8.977-.362.208-.707.423-1.055.637A1.882,1.882,0,0,0,11.41,11.107Zm-.8.817a.906.906,0,1,1-.906.906A.908.908,0,0,1,10.608,11.924ZM9.547,14.412a1.91,1.91,0,0,0,.589.258c-.014.44-.028.88-.028,1.33,0,.7.023,1.378.055,2.048a32.652,32.652,0,0,1-2.576-2.037C8.188,15.477,8.845,14.942,9.547,14.412Zm10.884-4.4q.151.955.253,1.952c-.563-.361-1.137-.719-1.739-1.066s-1.2-.666-1.792-.972q.907-.408,1.8-.753A1.9,1.9,0,0,0,20.431,10.012Zm1.406,3.941A32.8,32.8,0,0,1,24.424,16c-.766.677-1.634,1.363-2.587,2.048.033-.675.055-1.356.055-2.048S21.87,14.627,21.837,13.953Zm-.388-5.836a.906.906,0,1,1-.906-.906A.907.907,0,0,1,21.449,8.117ZM16,1.508c1.342,0,2.681,1.849,3.627,4.948a1.9,1.9,0,0,0-.99,1.661c0,.036.008.069.01.1-.878.334-1.761.706-2.649,1.129A34.181,34.181,0,0,0,12.02,7.744C12.939,3.982,14.447,1.508,16,1.508ZM3.448,8.754C4.2,7.462,6.991,7.278,10.84,8.408q-.246,1.2-.417,2.534A1.885,1.885,0,0,0,8.9,13.651q-1.111.84-2.051,1.676C3.94,12.56,2.7,10.046,3.448,8.754Zm0,14.492c-.778-1.348.61-3.888,3.41-6.565a34.394,34.394,0,0,0,3.384,2.644,34.015,34.015,0,0,0,.6,4.267C6.993,24.723,4.2,24.539,3.448,23.246ZM16,30.492c-1.493,0-3.051-2.33-4-6.23a34.363,34.363,0,0,0,3.986-1.616c.893.424,1.781.8,2.664,1.135a1.68,1.68,0,0,0-.017.174,1.9,1.9,0,0,0,.971,1.651C18.663,28.666,17.332,30.492,16,30.492Zm4.543-5.631a.906.906,0,1,1,.906-.906A.906.906,0,0,1,20.543,24.861Zm8.009-1.615c-.673,1.162-2.946,1.4-6.107.666A1.9,1.9,0,0,0,21.4,22.261c.157-.951.28-1.93.361-2.937a33.942,33.942,0,0,0,3.393-2.655C28.058,19.439,29.3,21.953,28.552,23.246Z"></path></g></g><g id="SvgjsG2188" featurekey="nameFeature-0" transform="matrix(1.6398050786945728,0,0,1.6398050786945728,-1.9677657816654899,255.53748234022524)" fill="#f9f7e9"><path d="M1.2 30.240000000000002 l4.04 0 c0.08 5.16 0.48 6.16 1.92 6.16 c1.96 0 1.96 -1.64 1.96 -6 c0 -6.4 -7.92 -4.68 -7.92 -13.2 c0 -5 0 -9.6 6 -9.6 c4.44 0 5.64 2.52 5.92 8.56 l-4 0 c-0.16 -4.36 -0.64 -5.36 -1.92 -5.36 c-1.96 0 -1.96 2.16 -1.96 6.4 c0 6.2 7.96 4 7.96 13.2 c0 5.6 0 10 -6.04 10 c-4.64 0 -5.72 -2.76 -5.96 -10.16 z M16.2 23.16 l0 -15.16 l4 0 l0 15.16 c0 11.56 0 13.24 2 13.24 s2 -1.68 2 -13.24 l0 -15.16 l4 0 l0 15.16 c0 12.8 0 17.24 -6 17.24 s-6 -4.44 -6 -17.24 z M32 40 l0 -32 l4 0 l0 28 l5.2 0 l0 4 l-9.2 0 z M42 11.600000000000001 l0 -3.6 l12 0 l0 3.6 l-4 0 l0 28.4 l-4 0 l0 -28.4 l-4 0 z M56.00000000000001 23.16 c0 -11.16 0.24 -15.56 6.24 -15.56 s6.24 4.4 6.24 15.56 c0 12.8 -0.24 17.24 -6.24 17.24 s-6.24 -4.44 -6.24 -17.24 z M60.00000000000001 23.16 c0 11.56 0 13.24 2.24 13.24 s2.24 -1.68 2.24 -13.24 c0 -10.4 0 -12.36 -2.24 -12.36 s-2.24 1.96 -2.24 12.36 z M72.08000000000001 40 l0 -32 l3.6 0 l5.24 19.6 l-0.04 -0.4 l0 -19.2 l4 0 l0 32 l-3.6 0 l-5.24 -17.6 l0.04 0.4 l0 17.2 l-4 0 z M88.88000000000001 40 l0 -32 l3.6 0 l4.2 20 l0.4 0 l4.2 -20 l3.6 0 l0 32 l-4 0 l0 -16 l-2.84 16 l-2.4 0 l-2.76 -16 l0 16 l-4 0 z M108.68 23.16 l0 -15.16 l4 0 l0 15.16 c0 11.56 0 13.24 2 13.24 s2 -1.68 2 -13.24 l0 -15.16 l4 0 l0 15.16 c0 12.8 0 17.24 -6 17.24 s-6 -4.44 -6 -17.24 z M124.48 40 l0 -32 l6.48 0 c4.12 0 5.52 2.52 5.52 7.36 c0 4.36 -0.52 6.84 -1.76 8.04 l0 0.24 c1.04 0.36 1.36 2.24 1.76 6.92 l0.8 9.44 l-4 0 l-0.52 -9.44 c-0.28 -4.76 -1 -5.76 -2.2 -5.76 l-2.08 0 l0 15.2 l-4 0 z M128.48000000000002 21.6 l2.48 0 c1.4 0 1.8 -1.4 1.8 -6.24 c0 -3.16 -0.6 -4.16 -1.8 -4.16 l-2.48 0 l0 10.4 z M140.08 23.16 c0 -11.16 0.24 -15.56 6.24 -15.56 s6.24 4.4 6.24 15.56 c0 12.8 -0.24 17.24 -6.24 17.24 s-6.24 -4.44 -6.24 -17.24 z M144.08 23.16 c0 11.56 0 13.24 2.24 13.24 s2.24 -1.68 2.24 -13.24 c0 -10.4 0 -12.36 -2.24 -12.36 s-2.24 1.96 -2.24 12.36 z M156.16000000000003 40 l0 -32 l6 0 c6 0 6 4.4 6 15.16 c0 12.4 0 16.84 -6 16.84 l-6 0 z M160.16000000000003 36 l2 0 c2.24 0 2.24 -1.68 2.24 -12.84 c0 -10 0 -11.96 -2.24 -11.96 l-2 0 l0 24.8 z M171.36 23.16 c0 -11.16 0.24 -15.56 6.24 -15.56 s6.24 4.4 6.24 15.56 c0 12.8 -0.24 17.24 -6.24 17.24 s-6.24 -4.44 -6.24 -17.24 z M175.36 23.16 c0 11.56 0 13.24 2.24 13.24 s2.24 -1.68 2.24 -13.24 c0 -10.4 0 -12.36 -2.24 -12.36 s-2.24 1.96 -2.24 12.36 z M186.24000000000004 8 l4.2 0 l2.4 23.6 l0.4 0 l2.4 -23.6 l4.2 0 l-4.4 32 l-4.8 0 z M202.64000000000001 40 l0 -16.8 c0 -11.16 0 -15.56 6 -15.56 s6 4.4 6 15.56 l0 16.8 l-4 0 l0 -9.2 l-4 0 l0 9.2 l-4 0 z M206.64000000000001 27.6 l4 0 l0 -4.4 c0 -10.4 0 -12.36 -2 -12.36 s-2 1.96 -2 12.36 l0 4.4 z"></path></g><g id="SvgjsG2189" featurekey="sloganFeature-0" transform="matrix(4.217052990153458,0,0,4.217052990153458,29.457367524616355,306.2998593794526)" fill="#f9f7e9"><path d="M11.14 18.76 l0 -8.92 l-3.18 9 c-0.18 0.5 -0.84 0.62 -1.04 0 l-3.08 -9 l0 8.92 c0 0.42 -0.32 0.64 -0.66 0.64 s-0.68 -0.22 -0.68 -0.64 l0 -10.74 c0 -0.38 0.28 -0.66 0.68 -0.66 l0.64 0 c0.44 0 0.68 0.32 0.78 0.62 c0.96 2.86 1.84 5.4 2.82 8.28 l2.9 -8.34 c0.1 -0.28 0.28 -0.56 0.7 -0.56 l0.8 0 c0.58 0 0.66 0.32 0.66 0.64 l0 10.76 c0 0.42 -0.34 0.64 -0.68 0.64 s-0.66 -0.22 -0.66 -0.64 z  M17.42 15.86 l0 -7.86 c0 -0.42 0.34 -0.64 0.66 -0.64 c0.34 0 0.66 0.22 0.66 0.64 l0 7.86 c0 1.44 0.98 2.3 2.34 2.3 l0.5 0 c1.4 0 2.36 -0.98 2.36 -2.3 l0 -7.86 c0 -0.42 0.32 -0.64 0.66 -0.64 c0.32 0 0.66 0.22 0.66 0.64 l0 7.86 c0 2.06 -1.46 3.64 -3.68 3.64 l-0.5 0 c-2.22 0 -3.66 -1.54 -3.66 -3.64 z M36.9 8 l0 10.76 c0 0.42 -0.32 0.64 -0.64 0.64 c-0.24 0 -0.56 -0.18 -0.7 -0.44 c-1.5 -2.94 -2.62 -5.2 -4.12 -8.16 l0 7.96 c0 0.42 -0.32 0.64 -0.66 0.64 c-0.32 0 -0.66 -0.22 -0.66 -0.64 l0 -10.76 c0 -0.7 1 -0.74 1.22 -0.32 l4.22 8.34 l0 -8.02 c0 -0.42 0.32 -0.64 0.66 -0.64 s0.68 0.22 0.68 0.64 z M42 18.78 l0 -10.78 c0 -0.42 0.32 -0.64 0.64 -0.64 s0.66 0.22 0.66 0.64 l0 10.78 c0 0.86 -1.3 0.86 -1.3 0 z M48.019999999999996 17.68 c-0.44 -0.82 0.68 -1.42 1.2 -0.6 c0.26 0.42 1.04 1.14 2.28 1.14 c0.52 0 1.82 -0.38 2 -1.86 c0.12 -0.9 -0.74 -1.78 -2.22 -2.52 c-2.08 -0.98 -3.66 -1.84 -3.66 -3.56 c0 -2.04 1.72 -3 3.56 -3 c1.66 0 2.58 1.02 2.9 1.54 c0.46 0.74 -0.54 1.46 -1.1 0.74 c-0.28 -0.36 -0.82 -0.96 -1.8 -0.96 c-1.1 0 -2.24 0.52 -2.24 1.68 c0 0.92 1.02 1.44 2.54 2.16 c1.78 0.88 3.64 1.74 3.36 4.08 c-0.22 1.84 -1.62 3.02 -3.34 3.02 c-1.3 0 -2.9 -0.7 -3.48 -1.86 z M65.16 18.86 l-0.78 -2.54 l-3.72 0 l-0.74 2.5 c-0.26 0.86 -1.58 0.6 -1.3 -0.28 c1.04 -3.5 2.06 -7.06 3.08 -10.6 c0.12 -0.38 0.44 -0.58 0.76 -0.58 c0.3 0 0.62 0.2 0.74 0.58 l3.18 10.6 c0.22 0.76 -0.96 1.18 -1.22 0.32 z M62.5 10.06 l-1.44 4.92 l2.94 0 c-0.5 -1.68 -0.96 -3.12 -1.5 -4.92 z"></path></g></svg>